HIERARCHY
ROOT Hips
{
  OFFSET 5.84602e-005 68.8428 3.50346
  CHANNELS 6 Xposition Yposition Zposition Zrotation Xrotation Yrotation
  JOINT Spine
  {
    OFFSET 0 8.597 -4.6522
    CHANNELS 3 Zrotation Xrotation Yrotation
    JOINT Spine1
    {
      OFFSET 0 7.8454 0.4098
      CHANNELS 3 Zrotation Xrotation Yrotation
      JOINT Spine2
      {
        OFFSET 0 9.7078 -2.1609
        CHANNELS 3 Zrotation Xrotation Yrotation
        JOINT Neck
        {
          OFFSET 0 21.8761 -0.4549
          CHANNELS 3 Zrotation Xrotation Yrotation
          JOINT Head
          {
            OFFSET 0 12.3537 3.3602
            CHANNELS 3 Zrotation Xrotation Yrotation
            End Site
            {
              OFFSET 0.0001 18.9506 0.5657
            }
          }
        }
        JOINT LeftShoulder
        {
          OFFSET 2.2086 21.1115 7.2329
          CHANNELS 3 Zrotation Xrotation Yrotation
          JOINT LeftArm
          {
            OFFSET 13.1193 3.0282 -4.8998
            CHANNELS 3 Zrotation Xrotation Yrotation
            JOINT LeftForeArm
            {
              OFFSET 27.4081 -0.0973053 -0.2375
              CHANNELS 3 Zrotation Xrotation Yrotation
              JOINT LeftHand
              {
                OFFSET 22.8641 0.0662994 -0.1369
                CHANNELS 3 Zrotation Xrotation Yrotation
                JOINT LeftHandIndex1
                {
                  OFFSET 8.8614 0.775009 2.4612
                  CHANNELS 3 Zrotation Xrotation Yrotation
                  JOINT LeftHandIndex2
                  {
                    OFFSET 3.3146 -0.808304 0.5841
                    CHANNELS 3 Zrotation Xrotation Yrotation
                    JOINT LeftHandIndex3
                    {
                      OFFSET 2.2628 -0.552002 0.3989
                      CHANNELS 3 Zrotation Xrotation Yrotation
                      End Site
                      {
                        OFFSET 1.6102 -0.4807 0.2612
                      }
                    }
                  }
                }
                JOINT LeftHandMiddle1
                {
                  OFFSET 8.9937 0.895004 0.2143
                  CHANNELS 3 Zrotation Xrotation Yrotation
                  JOINT LeftHandMiddle2
                  {
                    OFFSET 4.0984 0.0113983 -0.0242
                    CHANNELS 3 Zrotation Xrotation Yrotation
                    JOINT LeftHandMiddle3
                    {
                      OFFSET 2.2716 0.00689697 -0.0138001
                      CHANNELS 3 Zrotation Xrotation Yrotation
                      End Site
                      {
                        OFFSET 2.0404 -0.1441 0.0027
                      }
                    }
                  }
                }
                JOINT LeftHandRing1
                {
                  OFFSET 8.5234 0.597198 -2.0164
                  CHANNELS 3 Zrotation Xrotation Yrotation
                  JOINT LeftHandRing2
                  {
                    OFFSET 3.7188 -0.188293 -0.2328
                    CHANNELS 3 Zrotation Xrotation Yrotation
                    JOINT LeftHandRing3
                    {
                      OFFSET 2.1191 -0.106598 -0.1332
                      CHANNELS 3 Zrotation Xrotation Yrotation
                      End Site
                      {
                        OFFSET 1.8737 -0.2304 -0.0886
                      }
                    }
                  }
                }
                JOINT LeftHandPinky1
                {
                  OFFSET 7.9094 -0.601089 -3.4825
                  CHANNELS 3 Zrotation Xrotation Yrotation
                  JOINT LeftHandPinky2
                  {
                    OFFSET 2.2874 -0.477005 -0.6314
                    CHANNELS 3 Zrotation Xrotation Yrotation
                    JOINT LeftHandPinky3
                    {
                      OFFSET 1.6774 -0.349396 -0.4633
                      CHANNELS 3 Zrotation Xrotation Yrotation
                      End Site
                      {
                        OFFSET 1.4888 -0.4091 -0.3416
                      }
                    }
                  }
                }
                JOINT LeftHandThumb1
                {
                  OFFSET 1.833 -1.3875 1.3896
                  CHANNELS 3 Zrotation Xrotation Yrotation
                  JOINT LeftHandThumb2
                  {
                    OFFSET 3.4129 -1.121 2.5732
                    CHANNELS 3 Zrotation Xrotation Yrotation
                    JOINT LeftHandThumb3
                    {
                      OFFSET 2.2474 -0.804199 1.6192
                      CHANNELS 3 Zrotation Xrotation Yrotation
                      End Site
                      {
                        OFFSET 1.6527 -0.5689 1.1317
                      }
                    }
                  }
                }
              }
            }
          }
        }
        JOINT RightShoulder
        {
          OFFSET -2.2086 21.1115 7.2329
          CHANNELS 3 Zrotation Xrotation Yrotation
          JOINT RightArm
          {
            OFFSET -13.1216 3.0287 -4.9007
            CHANNELS 3 Zrotation Xrotation Yrotation
            JOINT RightForeArm
            {
              OFFSET -27.4081 -0.0973053 -0.2375
              CHANNELS 3 Zrotation Xrotation Yrotation
              JOINT RightHand
              {
                OFFSET -22.8641 0.0664063 -0.1369
                CHANNELS 3 Zrotation Xrotation Yrotation
                JOINT RightHandIndex1
                {
                  OFFSET -8.8614 0.774994 2.4612
                  CHANNELS 3 Zrotation Xrotation Yrotation
                  JOINT RightHandIndex2
                  {
                    OFFSET -3.3146 -0.808304 0.5841
                    CHANNELS 3 Zrotation Xrotation Yrotation
                    JOINT RightHandIndex3
                    {
                      OFFSET -2.2628 -0.552002 0.3989
                      CHANNELS 3 Zrotation Xrotation Yrotation
                      End Site
                      {
                        OFFSET -1.6102 -0.4807 0.2612
                      }
                    }
                  }
                }
                JOINT RightHandMiddle1
                {
                  OFFSET -8.9937 0.894989 0.2143
                  CHANNELS 3 Zrotation Xrotation Yrotation
                  JOINT RightHandMiddle2
                  {
                    OFFSET -4.0984 0.0113983 -0.0242
                    CHANNELS 3 Zrotation Xrotation Yrotation
                    JOINT RightHandMiddle3
                    {
                      OFFSET -2.2716 0.00691223 -0.0138001
                      CHANNELS 3 Zrotation Xrotation Yrotation
                      End Site
                      {
                        OFFSET -2.0404 -0.1441 0.0027
                      }
                    }
                  }
                }
                JOINT RightHandRing1
                {
                  OFFSET -8.5234 0.597198 -2.0164
                  CHANNELS 3 Zrotation Xrotation Yrotation
                  JOINT RightHandRing2
                  {
                    OFFSET -3.7188 -0.188309 -0.2328
                    CHANNELS 3 Zrotation Xrotation Yrotation
                    JOINT RightHandRing3
                    {
                      OFFSET -2.1191 -0.106598 -0.1332
                      CHANNELS 3 Zrotation Xrotation Yrotation
                      End Site
                      {
                        OFFSET -1.8737 -0.2304 -0.0886
                      }
                    }
                  }
                }
                JOINT RightHandPinky1
                {
                  OFFSET -7.9094 -0.601105 -3.4825
                  CHANNELS 3 Zrotation Xrotation Yrotation
                  JOINT RightHandPinky2
                  {
                    OFFSET -2.2874 -0.477005 -0.6314
                    CHANNELS 3 Zrotation Xrotation Yrotation
                    JOINT RightHandPinky3
                    {
                      OFFSET -1.6774 -0.349396 -0.4633
                      CHANNELS 3 Zrotation Xrotation Yrotation
                      End Site
                      {
                        OFFSET -1.4888 -0.4091 -0.3416
                      }
                    }
                  }
                }
                JOINT RightHandThumb1
                {
                  OFFSET -1.833 -1.38751 1.3896
                  CHANNELS 3 Zrotation Xrotation Yrotation
                  JOINT RightHandThumb2
                  {
                    OFFSET -3.41299 -1.12099 2.5732
                    CHANNELS 3 Zrotation Xrotation Yrotation
                    JOINT RightHandThumb3
                    {
                      OFFSET -2.24741 -0.804108 1.6192
                      CHANNELS 3 Zrotation Xrotation Yrotation
                      End Site
                      {
                        OFFSET -1.6527 -0.5689 1.1317
                      }
                    }
                  }
                }
              }
            }
          }
        }
      }
    }
  }
  JOINT RightUpLeg
  {
    OFFSET -9.1966 3.8861 -0.7581
    CHANNELS 3 Zrotation Xrotation Yrotation
    JOINT RightLeg
    {
      OFFSET -0.7359 -41.0265 0
      CHANNELS 3 Zrotation Xrotation Yrotation
      JOINT RightFoot
      {
        OFFSET 0 -40.2855 0
        CHANNELS 3 Zrotation Xrotation Yrotation
        JOINT RightToeBase
        {
          OFFSET 0 -5.6122 11.7359
          CHANNELS 3 Zrotation Xrotation Yrotation
          End Site
          {
            OFFSET 0 0 7.8731
          }
        }
      }
    }
  }
  JOINT LeftUpLeg
  {
    OFFSET 9.1965 3.8864 -0.7581
    CHANNELS 3 Zrotation Xrotation Yrotation
    JOINT LeftLeg
    {
      OFFSET 0.7359 -41.0268 0
      CHANNELS 3 Zrotation Xrotation Yrotation
      JOINT LeftFoot
      {
        OFFSET 0 -40.2855 0
        CHANNELS 3 Zrotation Xrotation Yrotation
        JOINT LeftToeBase
        {
          OFFSET 0 -5.6122 11.7359
          CHANNELS 3 Zrotation Xrotation Yrotation
          End Site
          {
            OFFSET 0 0 7.8731
          }
        }
      }
    }
  }
}
MOTION
Frames:	5
Frame Time:	0.0333333
39.7394 5.94211 7.20193 -180 -76.7709 -180 -0.0682568 3.36443 -0.150395 -0.127981 6.72911 -0.297539 -0.127981 6.72909 -0.297538 5.96214 23.4806 6.60911 2.0647 -4.83728 0.00285778 -11.2112 7.1269 8.05407 -54.8606 -10.6618 -25.6052 -7.01047 41.8689 -52.1231 -2.96147 3.51479 13.9717 5.83305e-007 8.66585e-007 -5.35554e-007 8.48444e-007 1.26049e-006 -7.78987e-007 6.36333e-007 9.45366e-007 -5.8424e-007 5.83305e-007 8.66585e-007 -5.35554e-007 -0.0146003 -8.88432e-005 8.92316e-007 6.36331e-007 9.4544e-007 -5.8412e-007 5.83305e-007 8.66585e-007 -5.35554e-007 -0.0187186 -0.00117455 5.57253e-005 6.36326e-007 9.45461e-007 -5.84093e-007 5.83305e-007 8.66585e-007 -5.35554e-007 -0.0123434 -0.00327039 0.000677921 6.36321e-007 9.45425e-007 -5.84157e-007 5.83305e-007 8.66585e-007 -5.35554e-007 8.48444e-007 1.26049e-006 -7.78987e-007 6.36333e-007 9.45366e-007 -5.8424e-007 11.6398 6.83606 -7.49705 54.8288 -10.6909 25.5737 7.01143 42.1796 51.513 3.48549 3.71568 -13.7636 1.06794e-007 -1.5676e-007 -9.78426e-008 6.40764e-007 -9.4056e-007 -5.87055e-007 1.06794e-007 -1.5676e-007 -9.78426e-008 1.06794e-007 -1.5676e-007 -9.78426e-008 0.014995 -9.48459e-005 -1.36933e-006 1.6019e-007 -2.35159e-007 -1.46733e-007 1.06794e-007 -1.5676e-007 -9.78426e-008 0.0189799 -0.00119277 -6.43287e-005 1.60189e-007 -2.35164e-007 -1.46727e-007 1.06794e-007 -1.5676e-007 -9.78426e-008 0.012273 -0.00324892 -0.000680752 1.06792e-007 -1.5677e-007 -9.78288e-008 1.06794e-007 -1.5676e-007 -9.78426e-008 6.40764e-007 -9.4056e-007 -5.87055e-007 1.06794e-007 -1.5676e-007 -9.78426e-008 -1.35154 -10.356 -30.356 -46.8198 50.2854 30.4055 15.2586 15.7569 -0.1281 1.38625e-007 3.50117e-006 8.47273e-007 0.902547 -10.3501 29.6656 46.8314 50.2923 -30.4299 -15.8207 15.7347 0.814043 1.98785e-015 -3.18055e-015 -1.98785e-015 
39.7394 5.89014 7.21788 -180 -76.9544 -180 -0.0678409 3.27771 -0.150588 -0.12735 6.55559 -0.298016 -0.12735 6.55557 -0.298016 5.94509 23.6253 6.40623 1.94846 -4.6731 -0.218185 -11.4705 7.12123 7.84825 -54.7623 -10.7369 -25.6194 -6.8829 41.7258 -51.536 -3.16164 3.52789 13.6683 -7.95106e-007 -1.18187e-006 7.30383e-007 -9.0112e-007 -1.33945e-006 8.27768e-007 -8.48113e-007 -1.26066e-006 7.79075e-007 -7.95106e-007 -1.18187e-006 7.30383e-007 -0.0146163 -8.95458e-005 9.54356e-007 -8.48111e-007 -1.26076e-006 7.78915e-007 -7.95106e-007 -1.18187e-006 7.30383e-007 -0.0187372 -0.0011735 5.89275e-005 -8.48103e-007 -1.26078e-006 7.78878e-007 -7.95106e-007 -1.18187e-006 7.30383e-007 -0.0121899 -0.00322402 0.00067823 -8.48097e-007 -1.26073e-006 7.78965e-007 -7.95106e-007 -1.18187e-006 7.30383e-007 -9.0112e-007 -1.33945e-006 8.27768e-007 -8.48113e-007 -1.26066e-006 7.79075e-007 11.8842 6.84249 -7.31045 54.7315 -10.7651 25.5888 6.88979 42.0522 50.9311 3.6665 3.72321 -13.468 4.80504e-007 -7.05386e-007 -4.40421e-007 -2.66947e-007 3.91881e-007 2.44678e-007 4.80504e-007 -7.05386e-007 -4.40421e-007 4.80504e-007 -7.05386e-007 -4.40421e-007 0.0149397 -8.90765e-005 -7.48759e-006 4.80502e-007 -7.05444e-007 -4.4033e-007 4.80504e-007 -7.05386e-007 -4.40421e-007 0.018985 -0.00119615 -5.66706e-005 4.80498e-007 -7.05459e-007 -4.40309e-007 4.80504e-007 -7.05386e-007 -4.40421e-007 0.012272 -0.00324803 -0.000681763 4.80494e-007 -7.0543e-007 -4.40359e-007 4.80504e-007 -7.05386e-007 -4.40421e-007 -2.66947e-007 3.91881e-007 2.44678e-007 4.80504e-007 -7.05386e-007 -4.40421e-007 -1.39687 -10.5914 -30.4367 -46.8222 50.2865 30.4065 15.1931 15.7731 -0.0546539 1.56978e-006 1.96079e-007 -5.31506e-007 0.961943 -10.5853 29.7693 46.8321 50.2926 -30.4292 -15.7358 15.7524 0.71654 -2.10118e-006 5.56946e-007 -1.03854e-006 
39.7393 5.83813 7.23377 -180 -77.1379 -180 -0.0674218 3.19094 -0.150763 -0.126714 6.38205 -0.298454 -0.126714 6.38204 -0.298454 5.92865 23.7702 6.20314 1.83288 -4.50848 -0.43885 -11.7299 7.11656 7.64243 -54.664 -10.8121 -25.6334 -6.75363 41.5838 -50.9502 -3.36172 3.54204 13.3649 -7.41799e-007 -1.10323e-006 6.81773e-007 -1.43061e-006 -2.12765e-006 1.31485e-006 -7.94785e-007 -1.18203e-006 7.30471e-007 -7.41799e-007 -1.10323e-006 6.81773e-007 -0.0146 -8.97744e-005 -2.78451e-008 -7.94783e-007 -1.18212e-006 7.30321e-007 -7.41799e-007 -1.10323e-006 6.81773e-007 -0.018742 -0.00117684 5.36613e-005 -2.72726e-006 -8.85701e-007 -9.1367e-007 -7.41799e-007 -1.10323e-006 6.81773e-007 -0.0122829 -0.00324873 0.000683755 -7.9477e-007 -1.1821e-006 7.30366e-007 -7.41799e-007 -1.10323e-006 6.81773e-007 -1.43061e-006 -2.12765e-006 1.31485e-006 -7.94785e-007 -1.18203e-006 7.30471e-007 12.1287 6.84977 -7.12391 54.6341 -10.8394 25.6038 6.7667 41.9257 50.3502 3.84755 3.73202 -13.1725 -5.33811e-008 7.83728e-008 4.89502e-008 -5.33811e-008 7.83727e-008 4.89502e-008 6.40573e-007 -9.40473e-007 -5.87402e-007 -5.33811e-008 7.83728e-008 4.89502e-008 0.014996 -9.25474e-005 4.9399e-007 6.40571e-007 -9.4055e-007 -5.8728e-007 -5.33811e-008 7.83728e-008 4.89502e-008 0.0190163 -0.00119264 -6.44606e-005 6.40565e-007 -9.4057e-007 -5.87253e-007 -5.33811e-008 7.83728e-008 4.89502e-008 0.0122663 -0.00324567 -0.000680774 6.4056e-007 -9.40532e-007 -5.8732e-007 -5.33811e-008 7.83728e-008 4.89502e-008 -5.33811e-008 7.83727e-008 4.89502e-008 6.40573e-007 -9.40473e-007 -5.87402e-007 -1.4424 -10.8323 -30.5176 -46.8316 50.2909 30.4127 15.1276 15.7892 0.0188342 -3.91909e-007 3.13926e-006 -7.22724e-007 1.02181 -10.8206 29.8732 46.8328 50.2929 -30.4286 -15.6508 15.7701 0.618984 -2.65895e-007 1.80866e-007 -7.84857e-007 
39.7393 5.78607 7.24961 -180 -77.3214 -180 -0.0670003 3.1042 -0.150917 -0.126076 6.20856 -0.298851 -0.126076 6.20857 -0.298851 5.91276 23.9149 5.99986 1.71796 -4.34342 -0.659132 -11.9893 7.1127 7.43659 -54.5657 -10.8873 -25.6473 -6.62282 41.4429 -50.3655 -3.5617 3.55725 13.0616 1.58891e-007 2.3644e-007 -1.46112e-007 1.38605e-006 -2.17631e-007 -2.40544e-006 2.11854e-007 3.15253e-007 -1.94817e-007 1.58891e-007 2.3644e-007 -1.46112e-007 -0.0146348 -8.74411e-005 1.27555e-006 2.14375e-006 2.00727e-008 1.45186e-006 1.58891e-007 2.3644e-007 -1.46112e-007 -0.0187126 -0.0011716 6.26343e-005 2.11852e-007 3.15284e-007 -1.94767e-007 1.58891e-007 2.3644e-007 -1.46112e-007 -0.0122289 -0.00323633 0.00067655 2.1185e-007 3.15272e-007 -1.94789e-007 1.58891e-007 2.3644e-007 -1.46112e-007 1.38605e-006 -2.17631e-007 -2.40544e-006 2.11854e-007 3.15253e-007 -1.94817e-007 12.3731 6.85771 -6.93737 54.5368 -10.9136 25.6187 6.6422 41.8002 49.7703 4.02849 3.74158 -12.8771 -8.82781e-031 1.59028e-014 3.18055e-015 1.45284e-006 1.73989e-007 -2.39204e-006 -6.36111e-015 4.77083e-015 9.54166e-015 -8.82781e-031 1.59028e-014 3.18055e-015 0.0150206 -9.05854e-005 -1.15291e-006 6.36111e-015 -3.18055e-015 9.54166e-015 -8.82781e-031 1.59028e-014 3.18055e-015 0.0190092 -0.00119213 -5.36931e-005 -6.36111e-015 -4.77083e-015 -0 -8.82781e-031 1.59028e-014 3.18055e-015 0.0122747 -0.00325474 -0.000680249 -9.54166e-015 1.59028e-015 3.18055e-015 -8.82781e-031 1.59028e-014 3.18055e-015 1.45284e-006 1.73989e-007 -2.39204e-006 -6.36111e-015 4.77083e-015 9.54166e-015 -1.48842 -11.0697 -30.5987 -46.8367 50.2933 30.4158 15.0621 15.8052 0.0923221 1.97648e-006 3.87687e-006 1.09903e-006 1.0822 -11.0553 29.9775 46.8331 50.293 -30.4276 -15.5658 15.7875 0.5214 -3.38434e-006 5.03808e-006 5.69091e-007 
39.7393 5.73395 7.26538 -180 -77.505 -180 -0.0665766 3.01743 -0.151056 -0.125435 6.03502 -0.29922 -0.125435 6.03502 -0.29922 5.89743 24.0604 5.79638 1.6037 -4.17794 -0.879027 -12.2486 7.10991 7.23078 -54.4675 -10.9626 -25.6611 -6.4905 41.3031 -49.7819 -3.76158 3.5735 12.7584 -2.64703e-007 -3.94124e-007 2.43552e-007 -3.70584e-007 -5.51773e-007 3.40973e-007 -2.11762e-007 -3.15299e-007 1.94842e-007 -2.64703e-007 -3.94124e-007 2.43552e-007 -0.0146356 -8.60194e-005 -5.77379e-007 -2.11762e-007 -3.15324e-007 1.94802e-007 -2.64703e-007 -3.94124e-007 2.43552e-007 -0.0187709 -0.00117605 5.66414e-005 -2.1176e-007 -3.15331e-007 1.94792e-007 -2.64703e-007 -3.94124e-007 2.43552e-007 -0.0123167 -0.00326357 0.000672193 -2.11758e-007 -3.15319e-007 1.94814e-007 -2.64703e-007 -3.94124e-007 2.43552e-007 -3.70584e-007 -5.51773e-007 3.40973e-007 -2.11762e-007 -3.15299e-007 1.94842e-007 12.6174 6.86656 -6.75091 54.4395 -10.9879 25.6334 6.51631 41.6757 49.1915 4.20937 3.75206 -12.5817 2.33492e-006 -3.48723e-007 1.17681e-006 4.8026e-007 -7.05302e-007 -4.4082e-007 4.8026e-007 -7.05302e-007 -4.4082e-007 2.33492e-006 -3.48723e-007 1.17681e-006 0.0149911 -9.19271e-005 -1.20553e-006 4.80259e-007 -7.05359e-007 -4.40728e-007 2.33492e-006 -3.48723e-007 1.17681e-006 0.0189875 -0.00118911 -6.32514e-005 4.80254e-007 -7.05374e-007 -4.40708e-007 2.33492e-006 -3.48723e-007 1.17681e-006 0.0122573 -0.00324468 -0.000681274 4.80251e-007 -7.05346e-007 -4.40758e-007 2.33492e-006 -3.48723e-007 1.17681e-006 4.8026e-007 -7.05302e-007 -4.4082e-007 4.8026e-007 -7.05302e-007 -4.4082e-007 -1.53491 -11.3032 -30.6802 -46.8369 50.2933 30.415 14.9965 15.8212 0.165861 -6.57885e-007 2.95798e-006 -1.50745e-006 1.14308 -11.2886 30.0822 46.8316 50.2923 -30.4252 -15.4807 15.8049 0.42378 -1.56942e-006 1.94887e-007 5.32735e-007 
